<?xml version="1.0" standalone="no"?>
<svg xmlns:xlink="http://www.w3.org/1999/xlink" id="wave" style="transform:rotate(180deg); transition: 0.3s" viewBox="0 0 1440 490" version="1.1"
	xmlns="http://www.w3.org/2000/svg">
	<defs>
		<linearGradient id="sw-gradient-0" x1="0" x2="0" y1="1" y2="0">
			<stop stop-color="rgba(243, 106, 62, 1)" offset="0%"/>
			<stop stop-color="rgba(244.043, 168.03, 0, 1)" offset="100%"/>
		</linearGradient>
	</defs>
	<path style="transform:translate(0, 0px); opacity:1" fill="url(#sw-gradient-0)" d="M0,49L60,65.3C120,82,240,114,360,179.7C480,245,600,343,720,375.7C840,408,960,376,1080,318.5C1200,261,1320,180,1440,163.3C1560,147,1680,196,1800,187.8C1920,180,2040,114,2160,98C2280,82,2400,114,2520,138.8C2640,163,2760,180,2880,163.3C3000,147,3120,98,3240,138.8C3360,180,3480,310,3600,359.3C3720,408,3840,376,3960,367.5C4080,359,4200,376,4320,351.2C4440,327,4560,261,4680,228.7C4800,196,4920,196,5040,187.8C5160,180,5280,163,5400,130.7C5520,98,5640,49,5760,49C5880,49,6000,98,6120,163.3C6240,229,6360,310,6480,294C6600,278,6720,163,6840,98C6960,33,7080,16,7200,81.7C7320,147,7440,294,7560,351.2C7680,408,7800,376,7920,359.3C8040,343,8160,343,8280,326.7C8400,310,8520,278,8580,261.3L8640,245L8640,490L8580,490C8520,490,8400,490,8280,490C8160,490,8040,490,7920,490C7800,490,7680,490,7560,490C7440,490,7320,490,7200,490C7080,490,6960,490,6840,490C6720,490,6600,490,6480,490C6360,490,6240,490,6120,490C6000,490,5880,490,5760,490C5640,490,5520,490,5400,490C5280,490,5160,490,5040,490C4920,490,4800,490,4680,490C4560,490,4440,490,4320,490C4200,490,4080,490,3960,490C3840,490,3720,490,3600,490C3480,490,3360,490,3240,490C3120,490,3000,490,2880,490C2760,490,2640,490,2520,490C2400,490,2280,490,2160,490C2040,490,1920,490,1800,490C1680,490,1560,490,1440,490C1320,490,1200,490,1080,490C960,490,840,490,720,490C600,490,480,490,360,490C240,490,120,490,60,490L0,490Z"/>
	<defs>
		<linearGradient id="sw-gradient-1" x1="0" x2="0" y1="1" y2="0">
			<stop stop-color="rgba(243, 106, 62, 1)" offset="0%"/>
			<stop stop-color="rgba(255, 179, 11, 1)" offset="100%"/>
		</linearGradient>
	</defs>
	<path style="transform:translate(0, 50px); opacity:0.9" fill="url(#sw-gradient-1)" d="M0,49L60,40.8C120,33,240,16,360,57.2C480,98,600,196,720,228.7C840,261,960,229,1080,204.2C1200,180,1320,163,1440,163.3C1560,163,1680,180,1800,228.7C1920,278,2040,359,2160,367.5C2280,376,2400,310,2520,236.8C2640,163,2760,82,2880,40.8C3000,0,3120,0,3240,24.5C3360,49,3480,98,3600,98C3720,98,3840,49,3960,89.8C4080,131,4200,261,4320,326.7C4440,392,4560,392,4680,334.8C4800,278,4920,163,5040,106.2C5160,49,5280,49,5400,40.8C5520,33,5640,16,5760,65.3C5880,114,6000,229,6120,294C6240,359,6360,376,6480,392C6600,408,6720,425,6840,416.5C6960,408,7080,376,7200,367.5C7320,359,7440,376,7560,343C7680,310,7800,229,7920,179.7C8040,131,8160,114,8280,163.3C8400,212,8520,327,8580,383.8L8640,441L8640,490L8580,490C8520,490,8400,490,8280,490C8160,490,8040,490,7920,490C7800,490,7680,490,7560,490C7440,490,7320,490,7200,490C7080,490,6960,490,6840,490C6720,490,6600,490,6480,490C6360,490,6240,490,6120,490C6000,490,5880,490,5760,490C5640,490,5520,490,5400,490C5280,490,5160,490,5040,490C4920,490,4800,490,4680,490C4560,490,4440,490,4320,490C4200,490,4080,490,3960,490C3840,490,3720,490,3600,490C3480,490,3360,490,3240,490C3120,490,3000,490,2880,490C2760,490,2640,490,2520,490C2400,490,2280,490,2160,490C2040,490,1920,490,1800,490C1680,490,1560,490,1440,490C1320,490,1200,490,1080,490C960,490,840,490,720,490C600,490,480,490,360,490C240,490,120,490,60,490L0,490Z"/>
</svg>
